<svg xmlns="http://www.w3.org/2000/svg" xmlns:xlink="http://www.w3.org/1999/xlink" zoomAndPan="magnify" preserveAspectRatio="xMidYMid meet" version="1.0" viewBox="24.75 49.77 325.5 275.27"><defs><clipPath id="6fa8e2e775"><path d="M 325 99 L 350.25 99 L 350.25 175 L 325 175 Z M 325 99 " clip-rule="nonzero"/></clipPath><clipPath id="51d8281c6a"><path d="M 225 49.773438 L 301 49.773438 L 301 75 L 225 75 Z M 225 49.773438 " clip-rule="nonzero"/></clipPath><clipPath id="c7b2a18806"><path d="M 174.480469 300 L 200.519531 300 L 200.519531 325.023438 L 174.480469 325.023438 Z M 174.480469 300 " clip-rule="nonzero"/></clipPath><clipPath id="fbdaa28890"><path d="M 74 49.773438 L 150 49.773438 L 150 75 L 74 75 Z M 74 49.773438 " clip-rule="nonzero"/></clipPath><clipPath id="5c678ac7f7"><path d="M 24.75 99 L 50 99 L 50 175 L 24.75 175 Z M 24.75 99 " clip-rule="nonzero"/></clipPath></defs><path fill="#ffffff" d="M 99.863281 99.851562 L 99.863281 124.875 L 124.902344 124.875 L 124.902344 99.851562 L 99.863281 99.851562 " fill-opacity="1" fill-rule="nonzero"/><path fill="#ffffff" d="M 74.824219 149.898438 L 99.863281 149.898438 L 99.863281 124.875 L 74.824219 124.875 L 74.824219 149.898438 " fill-opacity="1" fill-rule="nonzero"/><path fill="#ff3200" d="M 74.824219 124.875 L 99.863281 124.875 L 99.863281 99.851562 L 124.902344 99.851562 L 124.902344 124.875 L 99.863281 124.875 L 99.863281 149.898438 L 74.824219 149.898438 Z M 300.171875 99.851562 L 300.171875 74.835938 L 225.054688 74.835938 L 225.054688 99.851562 L 200.019531 99.851562 L 200.019531 124.875 L 174.980469 124.875 L 174.980469 99.851562 L 149.945312 99.851562 L 149.945312 74.835938 L 74.824219 74.835938 L 74.824219 99.851562 L 49.789062 99.851562 L 49.789062 174.917969 L 74.824219 174.917969 L 74.824219 199.9375 L 99.863281 199.9375 L 99.863281 224.957031 L 124.902344 224.957031 L 124.902344 249.976562 L 149.945312 249.976562 L 149.945312 274.996094 L 174.980469 274.996094 L 174.980469 300.019531 L 200.019531 300.019531 L 200.019531 274.996094 L 225.054688 274.996094 L 225.054688 249.976562 L 250.09375 249.976562 L 250.09375 224.957031 L 275.132812 224.957031 L 275.132812 199.9375 L 300.171875 199.9375 L 300.171875 174.917969 L 325.210938 174.917969 L 325.210938 99.851562 L 300.171875 99.851562 " fill-opacity="1" fill-rule="nonzero"/><g clip-path="url(#6fa8e2e775)"><path fill="#000000" d="M 325.210938 99.851562 L 325.210938 174.917969 L 350.25 174.917969 L 350.25 99.851562 L 325.210938 99.851562 " fill-opacity="1" fill-rule="nonzero"/></g><path fill="#000000" d="M 300.171875 199.9375 L 325.210938 199.9375 L 325.210938 174.917969 L 300.171875 174.917969 L 300.171875 199.9375 " fill-opacity="1" fill-rule="nonzero"/><path fill="#000000" d="M 325.210938 99.851562 L 325.210938 74.835938 L 300.171875 74.835938 L 300.171875 99.851562 L 325.210938 99.851562 " fill-opacity="1" fill-rule="nonzero"/><path fill="#000000" d="M 275.132812 224.957031 L 300.171875 224.957031 L 300.171875 199.9375 L 275.132812 199.9375 L 275.132812 224.957031 " fill-opacity="1" fill-rule="nonzero"/><path fill="#000000" d="M 250.09375 249.976562 L 275.132812 249.976562 L 275.132812 224.957031 L 250.09375 224.957031 L 250.09375 249.976562 " fill-opacity="1" fill-rule="nonzero"/><g clip-path="url(#51d8281c6a)"><path fill="#000000" d="M 275.132812 74.835938 L 300.171875 74.835938 L 300.171875 49.8125 L 225.054688 49.8125 L 225.054688 74.835938 L 275.132812 74.835938 " fill-opacity="1" fill-rule="nonzero"/></g><path fill="#000000" d="M 225.054688 274.996094 L 250.09375 274.996094 L 250.09375 249.976562 L 225.054688 249.976562 L 225.054688 274.996094 " fill-opacity="1" fill-rule="nonzero"/><path fill="#000000" d="M 200.019531 300.019531 L 225.054688 300.019531 L 225.054688 274.996094 L 200.019531 274.996094 L 200.019531 300.019531 " fill-opacity="1" fill-rule="nonzero"/><path fill="#000000" d="M 225.054688 74.835938 L 200.019531 74.835938 L 200.019531 99.851562 L 225.054688 99.851562 L 225.054688 74.835938 " fill-opacity="1" fill-rule="nonzero"/><g clip-path="url(#c7b2a18806)"><path fill="#000000" d="M 174.980469 325.039062 L 200.019531 325.039062 L 200.019531 300.019531 L 174.980469 300.019531 L 174.980469 325.039062 " fill-opacity="1" fill-rule="nonzero"/></g><path fill="#000000" d="M 200.019531 124.875 L 200.019531 99.851562 L 174.980469 99.851562 L 174.980469 124.875 L 200.019531 124.875 " fill-opacity="1" fill-rule="nonzero"/><path fill="#000000" d="M 149.945312 274.996094 L 149.945312 300.019531 L 174.980469 300.019531 L 174.980469 274.996094 L 149.945312 274.996094 " fill-opacity="1" fill-rule="nonzero"/><path fill="#000000" d="M 174.980469 99.851562 L 174.980469 74.835938 L 149.945312 74.835938 L 149.945312 99.851562 L 174.980469 99.851562 " fill-opacity="1" fill-rule="nonzero"/><path fill="#000000" d="M 124.902344 249.976562 L 124.902344 274.996094 L 149.945312 274.996094 L 149.945312 249.976562 L 124.902344 249.976562 " fill-opacity="1" fill-rule="nonzero"/><path fill="#000000" d="M 99.863281 224.957031 L 99.863281 249.976562 L 124.902344 249.976562 L 124.902344 224.957031 L 99.863281 224.957031 " fill-opacity="1" fill-rule="nonzero"/><g clip-path="url(#fbdaa28890)"><path fill="#000000" d="M 124.902344 74.835938 L 149.945312 74.835938 L 149.945312 49.8125 L 74.824219 49.8125 L 74.824219 74.835938 L 124.902344 74.835938 " fill-opacity="1" fill-rule="nonzero"/></g><path fill="#000000" d="M 74.824219 199.9375 L 74.824219 224.957031 L 99.863281 224.957031 L 99.863281 199.9375 L 74.824219 199.9375 " fill-opacity="1" fill-rule="nonzero"/><path fill="#000000" d="M 49.789062 174.917969 L 49.789062 199.9375 L 74.824219 199.9375 L 74.824219 174.917969 L 49.789062 174.917969 " fill-opacity="1" fill-rule="nonzero"/><path fill="#000000" d="M 74.824219 74.835938 L 49.789062 74.835938 L 49.789062 99.851562 L 74.824219 99.851562 L 74.824219 74.835938 " fill-opacity="1" fill-rule="nonzero"/><g clip-path="url(#5c678ac7f7)"><path fill="#000000" d="M 49.789062 124.875 L 49.789062 99.851562 L 24.75 99.851562 L 24.75 174.917969 L 49.789062 174.917969 L 49.789062 124.875 " fill-opacity="1" fill-rule="nonzero"/></g></svg>